<?xml version="1.0" encoding="utf-8"?>
<svg width="800px" height="800px" viewBox="0 0 24 24" fill="none" xmlns="http://www.w3.org/2000/svg">
  <path fill-rule="evenodd" clip-rule="evenodd" d="M 12 18.546 C 15.615 18.546 18.546 15.615 18.546 12 C 18.546 8.385 15.615 5.454 12 5.454 C 8.385 5.454 5.454 8.385 5.454 12 C 5.454 15.615 8.385 18.546 12 18.546 Z M 12 16.364 C 14.41 16.364 16.364 14.41 16.364 12 C 16.364 9.59 14.41 7.636 12 7.636 C 9.59 7.636 7.636 9.59 7.636 12 C 7.636 14.41 9.59 16.364 12 16.364 Z" fill="#0F0F0F" style=""/>
  <path d="M 18.546 4.364 C 17.943 4.364 17.454 4.852 17.454 5.454 C 17.454 6.057 17.943 6.546 18.546 6.546 C 19.148 6.546 19.636 6.057 19.636 5.454 C 19.636 4.852 19.148 4.364 18.546 4.364 Z" fill="#0F0F0F" style=""/>
  <path fill-rule="evenodd" clip-rule="evenodd" d="M 0.714 3.574 C 0 4.974 0 6.807 0 10.472 L 0 13.528 C 0 17.193 0 19.026 0.714 20.426 C 1.341 21.657 2.343 22.659 3.574 23.286 C 4.974 24 6.807 24 10.472 24 L 13.528 24 C 17.193 24 19.026 24 20.426 23.286 C 21.657 22.659 22.659 21.657 23.286 20.426 C 24 19.026 24 17.193 24 13.528 L 24 10.472 C 24 6.807 24 4.974 23.286 3.574 C 22.659 2.343 21.657 1.341 20.426 0.714 C 19.026 0 17.193 0 13.528 0 L 10.472 0 C 6.807 0 4.974 0 3.574 0.714 C 2.343 1.341 1.341 2.343 0.714 3.574 Z M 13.528 2.182 L 10.472 2.182 C 8.603 2.182 7.334 2.184 6.352 2.263 C 5.395 2.342 4.905 2.483 4.564 2.658 C 3.743 3.076 3.076 3.743 2.658 4.564 C 2.483 4.905 2.342 5.395 2.263 6.352 C 2.184 7.334 2.182 8.603 2.182 10.472 L 2.182 13.528 C 2.182 15.397 2.184 16.666 2.263 17.648 C 2.342 18.605 2.483 19.095 2.658 19.436 C 3.076 20.257 3.743 20.924 4.564 21.342 C 4.905 21.517 5.395 21.658 6.352 21.737 C 7.334 21.816 8.603 21.818 10.472 21.818 L 13.528 21.818 C 15.397 21.818 16.666 21.816 17.648 21.737 C 18.605 21.658 19.095 21.517 19.436 21.342 C 20.257 20.924 20.924 20.257 21.342 19.436 C 21.517 19.095 21.658 18.605 21.737 17.648 C 21.816 16.666 21.818 15.397 21.818 13.528 L 21.818 10.472 C 21.818 8.603 21.816 7.334 21.737 6.352 C 21.658 5.395 21.517 4.905 21.342 4.564 C 20.924 3.743 20.257 3.076 19.436 2.658 C 19.095 2.483 18.605 2.342 17.648 2.263 C 16.666 2.184 15.397 2.182 13.528 2.182 Z" fill="#0F0F0F" style=""/>
</svg>