<svg width="178" height="117" viewBox="0 0 178 117" fill="none" xmlns="http://www.w3.org/2000/svg">
<g clip-path="url(#clip0_6_26)">
<path d="M10.1386 32.9574C8.17454 32.9574 6.48082 32.5125 4.91432 31.6625C3.39554 30.8125 2.19482 29.6129 1.34399 28.0956C0.493149 26.5783 0.0478516 24.8386 0.0478516 22.924V10.1738C0.0478516 8.21166 0.493149 6.51958 1.34399 5.00226C2.19482 3.48495 3.39554 2.2854 4.91432 1.43538C6.43311 0.585369 8.17454 0.140503 10.1386 0.140503H26.8771C27.6802 0.140503 28.3084 0.410601 28.8412 0.942853C29.3739 1.4751 29.6443 2.10268 29.6443 2.90503V4.86721C29.6443 5.6219 29.3739 6.29714 28.8412 6.78173C28.3084 7.31398 27.6325 7.58408 26.8771 7.58408H11.7449C10.9895 7.58408 10.3613 7.85418 9.86827 8.38643C9.3355 8.91868 9.06514 9.54626 9.06514 10.3009V22.8764C9.06514 23.6311 9.3355 24.3063 9.86827 24.7909C10.401 25.3311 11.0292 25.5932 11.7449 25.5932H26.8771C27.6802 25.5932 28.3084 25.8633 28.8412 26.3956C29.3739 26.9278 29.6443 27.5554 29.6443 28.3578V30.2802C29.6443 31.0349 29.3739 31.7102 28.8412 32.2424C28.3084 32.7747 27.6802 33.0448 26.8771 33.0448H10.1386V32.9574Z" fill="#440B8E"/>
<path d="M46.8278 32.9574C45.0387 32.9574 44.1481 32.0677 44.1481 30.2405V10.1739C44.1481 9.41918 43.8777 8.7916 43.345 8.29907C42.8122 7.76682 42.1363 7.49672 41.3809 7.49672H37.7628C35.9339 7.49672 35.0433 6.60699 35.0433 4.77986V2.73029C35.0433 0.903163 35.9339 0.0134277 37.7628 0.0134277L59.5029 0.0610925C61.3318 0.0610925 62.2224 0.950825 62.2224 2.77796V4.7878C62.2224 6.61494 61.3318 7.50467 59.5029 7.50467H55.8451C55.0897 7.50467 54.4615 7.77477 53.9288 8.30702C53.396 8.83927 53.1256 9.46685 53.1256 10.1818V30.2803C53.1256 32.0677 52.235 32.9574 50.4061 32.9574H46.8278Z" fill="#440B8E"/>
<path d="M70.3881 32.9574C69.6327 32.9574 68.9568 32.6873 68.424 32.155C67.8913 31.6228 67.6209 30.9475 67.6209 30.1928V2.8097C67.6209 2.00735 67.8913 1.34005 68.424 0.847516C68.9568 0.315264 69.6327 0.045166 70.3881 0.045166H88.8203C90.4265 0.045166 91.8579 0.402648 93.154 1.15733C94.4024 1.8723 95.4282 2.89708 96.1439 4.1443C96.8595 5.39151 97.2173 6.82144 97.2173 8.42614V10.9206C97.2173 11.7229 96.947 12.4379 96.4142 12.9701C95.8814 13.5024 95.2056 13.7725 94.3627 13.7725H94.2752C93.5198 13.7725 92.8916 14.0426 92.3986 14.5748C91.8658 15.1071 91.5954 15.7347 91.5954 16.4894C91.5954 17.244 91.8658 17.9193 92.3986 18.4039C92.9313 18.9361 93.5595 19.2062 94.2752 19.2062H94.633C95.3884 19.2062 95.9689 19.4287 96.4619 19.9212C96.9549 20.3661 97.1776 20.9936 97.1776 21.7483V30.2326C97.1776 30.9872 96.9072 31.6625 96.3745 32.1947C95.8417 32.727 95.2135 32.9971 94.4104 32.9971H90.9275C90.1721 32.9971 89.4962 32.727 88.9634 32.1947C88.4307 31.6625 88.1523 30.9952 88.1523 30.2326V22.789C88.1523 22.0343 87.882 21.4067 87.3492 20.9142C86.8164 20.3819 86.1883 20.1118 85.4328 20.1118H79.2702C78.5148 20.1118 77.8866 20.3819 77.3936 20.9142C76.8609 21.4464 76.5905 22.074 76.5905 22.789V30.2326C76.5905 30.9872 76.3201 31.6625 75.7874 32.1947C75.2546 32.727 74.6264 32.9971 73.8233 32.9971H70.3881V32.9574ZM79.3179 12.9304H85.4806C86.236 12.9304 86.9119 12.6603 87.3969 12.1281C87.9297 11.5958 88.2001 10.9682 88.2001 10.2533C88.2001 9.49859 87.9297 8.82334 87.3969 8.33876C86.8642 7.80651 86.236 7.53641 85.4806 7.53641H79.3179C78.5625 7.53641 77.9343 7.80651 77.4413 8.33876C76.9086 8.87101 76.6382 9.49859 76.6382 10.2533C76.6382 11.008 76.9086 11.6355 77.4413 12.1281C77.9343 12.6683 78.6023 12.9304 79.3179 12.9304Z" fill="#440B8E"/>
<path d="M105.384 32.9574C104.628 32.9574 103.952 32.6873 103.42 32.155C102.887 31.6228 102.616 30.9475 102.616 30.1928V2.8097C102.616 2.00735 102.887 1.34005 103.42 0.847516C103.952 0.315264 104.628 0.045166 105.384 0.045166H108.866C109.67 0.045166 110.298 0.315264 110.831 0.847516C111.363 1.37977 111.634 2.00735 111.634 2.8097V22.789C111.634 23.5437 111.904 24.1713 112.389 24.7035C112.882 25.2358 113.55 25.5059 114.305 25.5059H121.223C122.027 25.5059 122.655 25.776 123.188 26.3082C123.72 26.8405 123.991 27.468 123.991 28.2704V30.1849C123.991 30.9396 123.72 31.6148 123.188 32.1471C122.655 32.6793 122.027 32.9494 121.223 32.9494L105.384 32.9574Z" fill="#440B8E"/>
<path d="M2.76453 75.4582C2.00911 75.4582 1.33321 75.1881 0.800442 74.6558C0.267675 74.1236 -0.00268555 73.4483 -0.00268555 72.6936V70.7791C-0.00268555 69.9768 0.267675 69.3492 0.800442 68.8169C1.33321 68.2847 2.00911 68.0146 2.76453 68.0146H17.857C18.6124 68.0146 19.2883 67.7445 19.7733 67.2122C20.2663 66.68 20.5765 66.0524 20.5765 65.2977C20.5765 64.543 20.3061 63.9155 19.7733 63.3832C19.2406 62.851 18.6124 62.5809 17.857 62.5809H9.6905C7.81389 62.5809 6.16788 62.1757 4.73656 61.3336C3.30524 60.4836 2.14429 59.3715 1.3014 57.9018C0.442612 56.4163 0.0450255 54.7639 0.0450255 52.9368V52.2218C0.0450255 50.347 0.450566 48.7026 1.29345 47.2727C2.14429 45.803 3.25753 44.6829 4.72861 43.8408C6.19968 42.9908 7.85365 42.5936 9.68255 42.5936H26.8265C27.6297 42.5936 28.2579 42.8637 28.7906 43.396C29.3234 43.9282 29.5937 44.5558 29.5937 45.3582V47.2727C29.5937 48.0274 29.3234 48.7026 28.7906 49.2349C28.2579 49.7671 27.6297 50.0372 26.8265 50.0372H11.6943C10.9389 50.0372 10.3107 50.3073 9.81773 50.8396C9.28496 51.3718 9.0146 51.9994 9.0146 52.7541C9.0146 53.5088 9.28496 54.1363 9.81773 54.6289C10.3505 55.1611 10.9787 55.4312 11.6943 55.4312H19.9085C21.7851 55.4312 23.4311 55.8364 24.8625 56.6784C26.3335 57.5284 27.4547 58.6406 28.2976 60.1182C29.1484 61.5402 29.546 63.2402 29.546 65.0674V65.822C29.546 67.6968 29.1405 69.3413 28.2976 70.7712C27.4468 72.2011 26.3335 73.3609 24.8625 74.203C23.4311 75.053 21.7374 75.4502 19.9085 75.4502H2.76453V75.4582Z" fill="#440B8E"/>
<path d="M37.76 75.4581C37.0046 75.4581 36.3287 75.188 35.7959 74.6558C35.2632 74.1235 34.9928 73.4483 34.9928 72.6936V45.3104C34.9928 44.5081 35.2632 43.8408 35.7959 43.3482C36.3287 42.816 37.0046 42.5459 37.76 42.5459H41.2429C42.046 42.5459 42.6742 42.816 43.207 43.3482C43.7397 43.8805 44.0101 44.5081 44.0101 45.3104V52.6666C44.0101 53.4213 44.2804 54.0965 44.8132 54.5811C45.346 55.1134 45.9742 55.3835 46.7296 55.3835C47.485 55.3835 48.1609 55.1134 48.646 54.5811C49.1787 54.0489 49.4491 53.4213 49.4491 52.6666V45.3104C49.4491 44.5081 49.7194 43.8408 50.2522 43.3482C50.785 42.816 51.4609 42.5459 52.2163 42.5459H55.6992C56.5023 42.5459 57.1305 42.816 57.6632 43.3482C58.196 43.8805 58.4664 44.5081 58.4664 45.3104V72.6936C58.4664 73.4483 58.196 74.1235 57.6632 74.6558C57.1305 75.188 56.5023 75.4581 55.6992 75.4581H52.2163C51.4609 75.4581 50.785 75.188 50.2522 74.6558C49.7194 74.1235 49.4491 73.4483 49.4491 72.6936V65.3771C49.4491 64.6224 49.1787 63.9472 48.646 63.4149C48.1132 62.8827 47.485 62.6126 46.7296 62.6126C45.9742 62.6126 45.346 62.8827 44.8132 63.4149C44.2804 63.9472 44.0101 64.5748 44.0101 65.3294V72.7333C44.0101 73.488 43.7397 74.1632 43.207 74.6955C42.6742 75.2277 42.046 75.4978 41.2429 75.4978H37.76V75.4581Z" fill="#440B8E"/>
<path d="M66.6116 75.4581C65.8562 75.4581 65.1803 75.188 64.6475 74.6558C64.1148 74.1235 63.8444 73.4483 63.8444 72.6936V45.3104C63.8444 44.5081 64.1148 43.8408 64.6475 43.3482C65.1803 42.816 65.8562 42.5459 66.6116 42.5459H70.0945C70.8976 42.5459 71.5258 42.816 72.0586 43.3482C72.5913 43.8805 72.8617 44.5081 72.8617 45.3104V72.6936C72.8617 73.4483 72.5913 74.1235 72.0586 74.6558C71.5258 75.188 70.8976 75.4581 70.0945 75.4581H66.6116Z" fill="#440B8E"/>
<path d="M81.0084 75.4581C80.253 75.4581 79.5771 75.188 79.0443 74.6558C78.5116 74.1235 78.2412 73.4483 78.2412 72.6936V45.3104C78.2412 44.5081 78.5116 43.8408 79.0443 43.3482C79.5771 42.816 80.253 42.5459 81.0084 42.5459H105.07C105.874 42.5459 106.502 42.816 107.035 43.3482C107.567 43.8805 107.838 44.5081 107.838 45.3104V47.2249C107.838 47.9796 107.567 48.6549 107.035 49.1871C106.502 49.7194 105.874 49.9895 105.07 49.9895H89.9382C89.1828 49.9895 88.5546 50.2596 88.0616 50.7918C87.5289 51.3241 87.2585 51.9517 87.2585 52.7063C87.2585 53.461 87.5289 54.0886 88.0616 54.5811C88.5944 55.1134 89.2226 55.3835 89.9382 55.3835H103.416C104.22 55.3835 104.848 55.6536 105.381 56.1858C105.913 56.7181 106.184 57.3933 106.184 58.1957V60.0228C106.184 60.8252 105.913 61.4925 105.381 62.0327C104.848 62.5729 104.172 62.835 103.416 62.835H89.9382C89.1828 62.835 88.5546 63.1051 88.0616 63.6374C87.5686 64.1696 87.2585 64.7972 87.2585 65.5122V72.6936C87.2585 73.4483 86.9881 74.1235 86.4554 74.6558C85.9226 75.188 85.2944 75.4581 84.4913 75.4581H81.0084Z" fill="#440B8E"/>
<path d="M125.021 75.4582C123.232 75.4582 122.341 74.5684 122.341 72.7413V52.6667C122.341 51.912 122.071 51.2844 121.538 50.7919C121.006 50.2596 120.33 49.9895 119.574 49.9895H115.956C114.127 49.9895 113.237 49.0998 113.237 47.2727V45.2231C113.237 43.396 114.127 42.5062 115.956 42.5062L137.696 42.5539C139.525 42.5539 140.416 43.4436 140.416 45.2708V47.2806C140.416 49.1077 139.525 49.9975 137.696 49.9975H134.038C133.283 49.9975 132.655 50.2676 132.122 50.7998C131.589 51.3321 131.319 51.9596 131.319 52.6746V72.781C131.319 74.5684 130.428 75.4582 128.599 75.4582H125.021Z" fill="#440B8E"/>
<path d="M2.87353 116.95C2.11812 116.95 1.44222 116.68 0.909448 116.148C0.376681 115.615 0.106323 114.94 0.106323 114.185V86.8102C0.106323 86.0078 0.376681 85.3405 0.909448 84.848C1.44222 84.3158 2.11812 84.0457 2.87353 84.0457H6.3564C7.15953 84.0457 7.78772 84.3158 8.32048 84.848C8.85325 85.3803 9.12361 86.0078 9.12361 86.8102V106.782C9.12361 107.536 9.39397 108.164 9.87903 108.696C10.372 109.228 11.04 109.498 11.7954 109.498H18.7134C19.5166 109.498 20.1447 109.769 20.6775 110.301C21.2103 110.833 21.4806 111.461 21.4806 112.263V114.177C21.4806 114.932 21.2103 115.607 20.6775 116.14C20.1447 116.672 19.5166 116.942 18.7134 116.942L2.87353 116.95Z" fill="#440B8E"/>
<path d="M29.6454 116.95C28.89 116.95 28.2141 116.68 27.6814 116.148C27.1486 115.615 26.8782 114.94 26.8782 114.185V86.8102C26.8782 86.0078 27.1486 85.3405 27.6814 84.848C28.2141 84.3158 28.89 84.0457 29.6454 84.0457H53.7552C54.5583 84.0457 55.2262 84.3158 55.7192 84.848C56.252 85.3803 56.5224 86.0078 56.5224 86.8102V88.7247C56.5224 89.4794 56.252 90.1546 55.7192 90.6869C55.1865 91.2191 54.5583 91.4892 53.7552 91.4892H38.5753C37.8198 91.4892 37.1917 91.7593 36.6986 92.2916C36.1659 92.8238 35.8955 93.4514 35.8955 94.2061C35.8955 94.9608 36.1659 95.5884 36.6986 96.0809C37.2314 96.6131 37.8596 96.8832 38.5753 96.8832H52.1012C52.9043 96.8832 53.5325 97.1533 54.0653 97.6856C54.598 98.2178 54.8684 98.8454 54.8684 99.6478V101.3C54.8684 102.102 54.598 102.77 54.0653 103.31C53.5325 103.842 52.9043 104.112 52.1012 104.112H38.5753C37.8198 104.112 37.1917 104.382 36.6986 104.915C36.1659 105.447 35.8955 106.075 35.8955 106.829C35.8955 107.584 36.1659 108.259 36.6986 108.744C37.2314 109.228 37.8596 109.546 38.5753 109.546H53.7552C54.5583 109.546 55.2262 109.816 55.7192 110.348C56.252 110.881 56.5224 111.508 56.5224 112.311V114.225C56.5224 114.98 56.252 115.655 55.7192 116.187C55.1865 116.72 54.5583 116.99 53.7552 116.99H29.6534V116.95H29.6454Z" fill="#440B8E"/>
<path d="M64.6703 116.95C63.9149 116.95 63.239 116.68 62.7062 116.148C62.1734 115.615 61.9031 114.94 61.9031 114.185V94.1187C61.9031 92.1565 62.3484 90.4644 63.1992 88.9471C64.0501 87.4298 65.2508 86.2302 66.7695 85.3802C68.2883 84.5302 70.0298 84.0853 71.9939 84.0853H75.2541C77.2182 84.0853 78.9119 84.5302 80.4307 85.3802C81.9494 86.2302 83.1502 87.4298 84.001 88.9471C84.8518 90.4644 85.2971 92.2041 85.2971 94.1187V114.185C85.2971 114.94 85.0268 115.615 84.494 116.148C83.9612 116.68 83.3331 116.95 82.5299 116.95H79.0948C78.3394 116.95 77.6635 116.68 77.1307 116.148C76.5979 115.615 76.3276 114.94 76.3276 114.185V109.284C76.3276 108.529 76.0572 107.902 75.5244 107.409C74.9917 106.877 74.3635 106.607 73.6081 106.607C72.8526 106.607 72.2245 106.877 71.7314 107.409C71.1987 107.941 70.9283 108.569 70.9283 109.324V114.185C70.9283 114.94 70.658 115.615 70.1252 116.148C69.5924 116.68 68.9642 116.95 68.1611 116.95H64.6703ZM73.6001 101.213C74.3555 101.213 75.0314 100.943 75.5165 100.41C76.0492 99.8781 76.3196 99.2505 76.3196 98.5356V94.2061C76.3196 93.4514 76.0492 92.7761 75.5165 92.2915C74.9837 91.7593 74.3555 91.4892 73.6001 91.4892C72.8447 91.4892 72.2165 91.7593 71.7235 92.2915C71.1907 92.8238 70.9204 93.4514 70.9204 94.2061V98.5356C70.9204 99.2902 71.1907 99.9178 71.7235 100.41C72.2642 100.895 72.8844 101.213 73.6001 101.213Z" fill="#440B8E"/>
<path d="M93.5219 116.95C92.7665 116.95 92.0906 116.68 91.5578 116.148C91.0251 115.615 90.7547 114.94 90.7547 114.185V86.8102C90.7547 86.0078 91.0251 85.3405 91.5578 84.848C92.0906 84.3158 92.7665 84.0457 93.5219 84.0457H111.954C113.56 84.0457 114.992 84.4031 116.288 85.1578C117.536 85.8728 118.562 86.8976 119.278 88.1448C119.993 89.392 120.351 90.8219 120.351 92.4266V94.9211C120.351 95.7234 120.081 96.4384 119.548 96.9706C119.015 97.5029 118.339 97.773 117.496 97.773H117.409C116.654 97.773 116.025 98.0431 115.532 98.5753C115 99.1076 114.729 99.7352 114.729 100.49C114.729 101.245 115 101.92 115.532 102.404C116.065 102.937 116.693 103.207 117.409 103.207H117.767C118.522 103.207 119.103 103.429 119.596 103.922C120.089 104.367 120.311 104.994 120.311 105.749V114.225C120.311 114.98 120.041 115.655 119.508 116.187C118.975 116.72 118.347 116.99 117.544 116.99H114.061C113.306 116.99 112.63 116.72 112.097 116.187C111.564 115.655 111.294 114.98 111.294 114.225V106.782C111.294 106.027 111.024 105.399 110.491 104.907C109.958 104.374 109.33 104.104 108.575 104.104H102.412C101.657 104.104 101.028 104.374 100.535 104.907C100.003 105.439 99.7322 106.067 99.7322 106.782V114.225C99.7322 114.98 99.4619 115.655 98.9291 116.187C98.3963 116.72 97.7681 116.99 96.965 116.99H93.5299V116.95H93.5219ZM102.452 96.9309H108.614C109.37 96.9309 110.046 96.6608 110.531 96.1286C111.063 95.5963 111.334 94.9687 111.334 94.2538C111.334 93.4991 111.063 92.8238 110.531 92.3392C109.998 91.807 109.37 91.5369 108.614 91.5369H102.452C101.696 91.5369 101.068 91.807 100.575 92.3392C100.042 92.8715 99.772 93.4991 99.772 94.2538C99.772 95.0084 100.042 95.636 100.575 96.1286C101.068 96.6608 101.696 96.9309 102.452 96.9309Z" fill="#440B8E"/>
<path d="M128.517 116.95C127.762 116.95 127.086 116.68 126.553 116.148C126.021 115.615 125.75 114.94 125.75 114.185V86.8102C125.75 86.0078 126.021 85.3405 126.553 84.848C127.086 84.3158 127.762 84.0457 128.517 84.0457H145.168C145.971 84.0457 146.6 84.3158 147.132 84.8957C147.665 85.4279 147.936 86.1032 147.936 86.8579V106.782C147.936 107.536 148.206 108.211 148.739 108.696C149.271 109.228 149.9 109.498 150.615 109.498C151.371 109.498 152.047 109.228 152.532 108.696C153.025 108.164 153.335 107.536 153.335 106.782V86.8102C153.335 86.0078 153.605 85.3405 154.138 84.848C154.671 84.3158 155.347 84.0457 156.102 84.0457H159.585C160.388 84.0457 161.016 84.3158 161.549 84.848C162.082 85.3803 162.352 86.0078 162.352 86.8102V114.193C162.352 114.948 162.082 115.623 161.549 116.156C161.016 116.688 160.388 116.958 159.585 116.958H142.934C142.179 116.958 141.503 116.688 140.97 116.156C140.437 115.623 140.167 114.948 140.167 114.193V94.2061C140.167 93.4514 139.896 92.8238 139.364 92.3313C138.831 91.799 138.203 91.529 137.447 91.529C136.692 91.529 136.064 91.799 135.571 92.3313C135.038 92.8636 134.767 93.4911 134.767 94.2061V114.225C134.767 114.98 134.497 115.655 133.964 116.187C133.432 116.72 132.803 116.99 132 116.99H128.517V116.95Z" fill="#440B8E"/>
<path d="M169.783 116.95C168.399 116.95 167.731 116.283 167.731 114.9V108.744C167.731 107.361 168.399 106.694 169.783 106.694H175.945C177.329 106.694 177.997 107.361 177.997 108.744V114.9C177.997 116.283 177.329 116.95 175.945 116.95H169.783Z" fill="#440B8E"/>
</g>
<defs>
<clipPath id="clip0_6_26">
<rect width="178" height="117" fill="white"/>
</clipPath>
</defs>
</svg>
