<?xml version="1.0" encoding="utf-8"?>
<!-- Generator: Adobe Illustrator 27.3.1, SVG Export Plug-In . SVG Version: 6.00 Build 0)  -->
<svg version="1.1" id="Layer_1" xmlns="http://www.w3.org/2000/svg" xmlns:xlink="http://www.w3.org/1999/xlink" x="0px" y="0px"
	 viewBox="0 0 1015.1 73.8" style="enable-background:new 0 0 1015.1 73.8;" xml:space="preserve">
<style type="text/css">
	.st0{fill:#FFF42C;}
</style>
<g>
	<g transform="translate(108.201457, 315.169197)">
		<g>
			<path class="st0" d="M-85.6-241.4c-4.4,0-8.2-1-11.7-2.9c-3.4-1.9-6.1-4.6-8-8c-1.9-3.4-2.9-7.3-2.9-11.6v-28.6
				c0-4.4,1-8.2,2.9-11.6c1.9-3.4,4.6-6.1,8-8c3.4-1.9,7.3-2.9,11.7-2.9h37.5c1.8,0,3.2,0.6,4.4,1.8c1.2,1.2,1.8,2.6,1.8,4.4v4.4
				c0,1.7-0.6,3.2-1.8,4.3c-1.2,1.2-2.7,1.8-4.4,1.8H-82c-1.7,0-3.1,0.6-4.2,1.8c-1.2,1.2-1.8,2.6-1.8,4.3v28.2
				c0,1.7,0.6,3.2,1.8,4.3c1.2,1.2,2.6,1.8,4.2,1.8h33.9c1.8,0,3.2,0.6,4.4,1.8c1.2,1.2,1.8,2.6,1.8,4.4v4.3c0,1.7-0.6,3.2-1.8,4.4
				c-1.2,1.2-2.6,1.8-4.4,1.8H-85.6z"/>
		</g>
	</g>
</g>
<g>
	<g transform="translate(166.999151, 315.169197)">
		<g>
			<path class="st0" d="M-62.2-241.4c-4,0-6-2-6-6.1v-45c0-1.7-0.6-3.1-1.8-4.2c-1.2-1.2-2.7-1.8-4.4-1.8h-8.1c-4.1,0-6.1-2-6.1-6.1
				v-4.6c0-4.1,2-6.1,6.1-6.1l48.7,0.1c4.1,0,6.1,2,6.1,6.1v4.5c0,4.1-2,6.1-6.1,6.1H-42c-1.7,0-3.1,0.6-4.3,1.8
				c-1.2,1.2-1.8,2.6-1.8,4.2v45.1c0,4-2,6-6.1,6H-62.2z"/>
		</g>
	</g>
</g>
<g>
	<g transform="translate(221.789485, 315.169197)">
		<g>
			<path class="st0" d="M-64.2-241.4c-1.7,0-3.2-0.6-4.4-1.8c-1.2-1.2-1.8-2.7-1.8-4.4v-61.4c0-1.8,0.6-3.3,1.8-4.4
				c1.2-1.2,2.7-1.8,4.4-1.8h41.3c3.6,0,6.8,0.8,9.7,2.5c2.8,1.6,5.1,3.9,6.7,6.7c1.6,2.8,2.4,6,2.4,9.6v5.6c0,1.8-0.6,3.4-1.8,4.6
				c-1.2,1.2-2.7,1.8-4.6,1.8h-0.2c-1.7,0-3.1,0.6-4.2,1.8c-1.2,1.2-1.8,2.6-1.8,4.3c0,1.7,0.6,3.2,1.8,4.3c1.2,1.2,2.6,1.8,4.2,1.8
				h0.8c1.7,0,3,0.5,4.1,1.6c1.1,1,1.6,2.4,1.6,4.1v19c0,1.7-0.6,3.2-1.8,4.4c-1.2,1.2-2.6,1.8-4.4,1.8h-7.8c-1.7,0-3.2-0.6-4.4-1.8
				c-1.2-1.2-1.8-2.7-1.8-4.4v-16.7c0-1.7-0.6-3.1-1.8-4.2c-1.2-1.2-2.6-1.8-4.3-1.8h-13.8c-1.7,0-3.1,0.6-4.2,1.8
				c-1.2,1.2-1.8,2.6-1.8,4.2v16.7c0,1.7-0.6,3.2-1.8,4.4c-1.2,1.2-2.6,1.8-4.4,1.8H-64.2z M-44.2-286.3h13.8c1.7,0,3.2-0.6,4.3-1.8
				c1.2-1.2,1.8-2.6,1.8-4.2c0-1.7-0.6-3.2-1.8-4.3c-1.2-1.2-2.6-1.8-4.3-1.8h-13.8c-1.7,0-3.1,0.6-4.2,1.8
				c-1.2,1.2-1.8,2.6-1.8,4.3c0,1.7,0.6,3.1,1.8,4.2C-47.3-286.9-45.8-286.3-44.2-286.3z"/>
		</g>
	</g>
</g>
<g>
	<g transform="translate(280.587185, 315.169197)">
		<g>
			<path class="st0" d="M-44.6-241.4c-1.7,0-3.2-0.6-4.4-1.8c-1.2-1.2-1.8-2.7-1.8-4.4v-61.4c0-1.8,0.6-3.3,1.8-4.4
				c1.2-1.2,2.7-1.8,4.4-1.8h7.8c1.8,0,3.2,0.6,4.4,1.8c1.2,1.2,1.8,2.6,1.8,4.4v44.8c0,1.7,0.6,3.1,1.7,4.3
				c1.1,1.2,2.6,1.8,4.3,1.8h15.5c1.8,0,3.2,0.6,4.4,1.8c1.2,1.2,1.8,2.6,1.8,4.4v4.3c0,1.7-0.6,3.2-1.8,4.4
				c-1.2,1.2-2.6,1.8-4.4,1.8H-44.6z"/>
		</g>
	</g>
</g>
<g>
	<g transform="translate(325.566386, 315.169197)">
		<g>
			<path class="st0" d="M-29.6-241.4c-1.7,0-3.2-0.6-4.4-1.8c-1.2-1.2-1.8-2.7-1.8-4.4v-4.3c0-1.8,0.6-3.2,1.8-4.4
				c1.2-1.2,2.7-1.8,4.4-1.8H4.2c1.7,0,3.2-0.6,4.3-1.8s1.8-2.6,1.8-4.3c0-1.7-0.6-3.1-1.8-4.3c-1.2-1.2-2.6-1.8-4.3-1.8h-18.3
				c-4.2,0-7.9-0.9-11.1-2.8s-5.8-4.4-7.7-7.7c-1.9-3.3-2.8-7-2.8-11.1v-1.6c0-4.2,0.9-7.9,2.8-11.1c1.9-3.3,4.4-5.8,7.7-7.7
				s7-2.8,11.1-2.8h38.4c1.8,0,3.2,0.6,4.4,1.8c1.2,1.2,1.8,2.6,1.8,4.4v4.3c0,1.7-0.6,3.2-1.8,4.4c-1.2,1.2-2.6,1.8-4.4,1.8H-9.6
				c-1.7,0-3.1,0.6-4.2,1.8c-1.2,1.2-1.8,2.6-1.8,4.3c0,1.7,0.6,3.1,1.8,4.2c1.2,1.2,2.6,1.8,4.2,1.8H8.8c4.2,0,7.9,0.9,11.1,2.8
				c3.3,1.9,5.8,4.4,7.7,7.7c1.9,3.2,2.8,7,2.8,11.1v1.7c0,4.2-0.9,7.9-2.8,11.1c-1.9,3.2-4.4,5.8-7.7,7.7c-3.2,1.9-7,2.8-11.1,2.8
				H-29.6z"/>
		</g>
	</g>
</g>
<g>
	<g transform="translate(384.364076, 315.169197)">
		<g>
			<path class="st0" d="M-10-241.4c-1.7,0-3.2-0.6-4.4-1.8c-1.2-1.2-1.8-2.7-1.8-4.4v-61.4c0-1.8,0.6-3.3,1.8-4.4
				c1.2-1.2,2.7-1.8,4.4-1.8h7.8c1.8,0,3.2,0.6,4.4,1.8c1.2,1.2,1.8,2.6,1.8,4.4v16.5c0,1.7,0.6,3.2,1.8,4.3
				c1.2,1.2,2.6,1.8,4.3,1.8c1.7,0,3.2-0.6,4.3-1.8c1.2-1.2,1.8-2.6,1.8-4.3v-16.5c0-1.8,0.6-3.3,1.8-4.4c1.2-1.2,2.7-1.8,4.4-1.8
				h7.8c1.8,0,3.2,0.6,4.4,1.8c1.2,1.2,1.8,2.6,1.8,4.4v61.4c0,1.7-0.6,3.2-1.8,4.4c-1.2,1.2-2.6,1.8-4.4,1.8h-7.8
				c-1.7,0-3.2-0.6-4.4-1.8c-1.2-1.2-1.8-2.7-1.8-4.4V-264c0-1.7-0.6-3.2-1.8-4.4c-1.2-1.2-2.6-1.8-4.3-1.8c-1.7,0-3.1,0.6-4.3,1.8
				c-1.2,1.2-1.8,2.6-1.8,4.3v16.6c0,1.7-0.6,3.2-1.8,4.4c-1.2,1.2-2.6,1.8-4.4,1.8H-10z"/>
		</g>
	</g>
</g>
<g>
	<g transform="translate(432.797893, 315.169197)">
		<g>
			<path class="st0" d="M6.2-241.4c-1.7,0-3.2-0.6-4.4-1.8c-1.2-1.2-1.8-2.7-1.8-4.4v-61.4c0-1.8,0.6-3.3,1.8-4.4
				c1.2-1.2,2.7-1.8,4.4-1.8H14c1.8,0,3.2,0.6,4.4,1.8c1.2,1.2,1.8,2.6,1.8,4.4v61.4c0,1.7-0.6,3.2-1.8,4.4
				c-1.2,1.2-2.6,1.8-4.4,1.8H6.2z"/>
		</g>
	</g>
</g>
<g>
	<g transform="translate(457.049351, 315.169197)">
		<g>
			<path class="st0" d="M14.2-241.4c-1.7,0-3.2-0.6-4.4-1.8c-1.2-1.2-1.8-2.7-1.8-4.4v-61.4c0-1.8,0.6-3.3,1.8-4.4
				c1.2-1.2,2.7-1.8,4.4-1.8h53.9c1.8,0,3.2,0.6,4.4,1.8c1.2,1.2,1.8,2.6,1.8,4.4v4.3c0,1.7-0.6,3.2-1.8,4.4
				c-1.2,1.2-2.6,1.8-4.4,1.8H34.2c-1.7,0-3.1,0.6-4.2,1.8c-1.2,1.2-1.8,2.6-1.8,4.3c0,1.7,0.6,3.1,1.8,4.2c1.2,1.2,2.6,1.8,4.2,1.8
				h30.2c1.8,0,3.2,0.6,4.4,1.8c1.2,1.2,1.8,2.7,1.8,4.5v4.1c0,1.8-0.6,3.3-1.8,4.5c-1.2,1.2-2.7,1.8-4.4,1.8H34.2
				c-1.7,0-3.1,0.6-4.2,1.8s-1.8,2.6-1.8,4.2v16.1c0,1.7-0.6,3.2-1.8,4.4c-1.2,1.2-2.6,1.8-4.4,1.8H14.2z"/>
		</g>
	</g>
</g>
<g>
	<g transform="translate(515.847041, 315.169197)">
		<g>
			<path class="st0" d="M54-241.4c-4,0-6-2-6-6.1v-45c0-1.7-0.6-3.1-1.8-4.2c-1.2-1.2-2.7-1.8-4.4-1.8h-8.1c-4.1,0-6.1-2-6.1-6.1
				v-4.6c0-4.1,2-6.1,6.1-6.1l48.7,0.1c4.1,0,6.1,2,6.1,6.1v4.5c0,4.1-2,6.1-6.1,6.1h-8.2c-1.7,0-3.1,0.6-4.3,1.8
				c-1.2,1.2-1.8,2.6-1.8,4.2v45.1c0,4-2,6-6.1,6H54z"/>
		</g>
	</g>
</g>
<g>
	<g transform="translate(570.637391, 315.169197)">
		<g>
			<path class="st0" d="M52.1-241.4c-1.7,0-3.2-0.6-4.4-1.8c-1.2-1.2-1.8-2.7-1.8-4.4v-61.4c0-1.8,0.6-3.3,1.8-4.4
				c1.2-1.2,2.7-1.8,4.4-1.8h7.8c1.8,0,3.2,0.6,4.4,1.8c1.2,1.2,1.8,2.6,1.8,4.4v44.8c0,1.7,0.6,3.1,1.7,4.3
				c1.1,1.2,2.6,1.8,4.3,1.8h15.5c1.8,0,3.2,0.6,4.4,1.8c1.2,1.2,1.8,2.6,1.8,4.4v4.3c0,1.7-0.6,3.2-1.8,4.4
				c-1.2,1.2-2.6,1.8-4.4,1.8H52.1z"/>
		</g>
	</g>
</g>
<g>
	<g transform="translate(615.616592, 315.169197)">
		<g>
			<path class="st0" d="M67.1-241.4c-1.7,0-3.2-0.6-4.4-1.8c-1.2-1.2-1.8-2.7-1.8-4.4v-61.4c0-1.8,0.6-3.3,1.8-4.4
				c1.2-1.2,2.7-1.8,4.4-1.8h54c1.8,0,3.3,0.6,4.4,1.8c1.2,1.2,1.8,2.6,1.8,4.4v4.3c0,1.7-0.6,3.2-1.8,4.4c-1.2,1.2-2.6,1.8-4.4,1.8
				h-34c-1.7,0-3.1,0.6-4.2,1.8c-1.2,1.2-1.8,2.6-1.8,4.3c0,1.7,0.6,3.1,1.8,4.2c1.2,1.2,2.6,1.8,4.2,1.8h30.3
				c1.8,0,3.2,0.6,4.4,1.8c1.2,1.2,1.8,2.6,1.8,4.4v3.7c0,1.8-0.6,3.3-1.8,4.5c-1.2,1.2-2.6,1.8-4.4,1.8H87.1
				c-1.7,0-3.1,0.6-4.2,1.8c-1.2,1.2-1.8,2.6-1.8,4.3c0,1.7,0.6,3.2,1.8,4.3s2.6,1.8,4.2,1.8h34c1.8,0,3.3,0.6,4.4,1.8
				c1.2,1.2,1.8,2.6,1.8,4.4v4.3c0,1.7-0.6,3.2-1.8,4.4c-1.2,1.2-2.6,1.8-4.4,1.8H67.1z"/>
		</g>
	</g>
</g>
<g>
	<g transform="translate(674.483402, 315.169197)">
		<g>
			<path class="st0" d="M86.7-241.4c-1.7,0-3.2-0.6-4.4-1.8c-1.2-1.2-1.8-2.7-1.8-4.4v-45c0-4.4,1-8.2,2.9-11.6c1.9-3.4,4.6-6.1,8-8
				c3.4-1.9,7.3-2.9,11.7-2.9h7.3c4.4,0,8.2,1,11.6,2.9c3.4,1.9,6.1,4.6,8,8c1.9,3.4,2.9,7.3,2.9,11.6v45c0,1.7-0.6,3.2-1.8,4.4
				c-1.2,1.2-2.6,1.8-4.4,1.8H119c-1.7,0-3.2-0.6-4.4-1.8c-1.2-1.2-1.8-2.7-1.8-4.4v-11c0-1.7-0.6-3.1-1.8-4.2
				c-1.2-1.2-2.6-1.8-4.3-1.8c-1.7,0-3.1,0.6-4.2,1.8c-1.2,1.2-1.8,2.6-1.8,4.3v10.9c0,1.7-0.6,3.2-1.8,4.4
				c-1.2,1.2-2.6,1.8-4.4,1.8H86.7z M106.7-276.7c1.7,0,3.2-0.6,4.3-1.8c1.2-1.2,1.8-2.6,1.8-4.2v-9.7c0-1.7-0.6-3.2-1.8-4.3
				c-1.2-1.2-2.6-1.8-4.3-1.8c-1.7,0-3.1,0.6-4.2,1.8c-1.2,1.2-1.8,2.6-1.8,4.3v9.7c0,1.7,0.6,3.1,1.8,4.2S105.1-276.7,106.7-276.7z
				"/>
		</g>
	</g>
</g>
<g>
	<g transform="translate(722.917219, 315.169197)">
		<g>
			<path class="st0" d="M102.9-241.4c-1.7,0-3.2-0.6-4.4-1.8c-1.2-1.2-1.8-2.7-1.8-4.4v-61.4c0-1.8,0.6-3.3,1.8-4.4
				c1.2-1.2,2.7-1.8,4.4-1.8h41.3c3.6,0,6.8,0.8,9.7,2.5c2.8,1.6,5.1,3.9,6.7,6.7c1.6,2.8,2.4,6,2.4,9.6v5.6c0,1.8-0.6,3.4-1.8,4.6
				c-1.2,1.2-2.7,1.8-4.6,1.8h-0.2c-1.7,0-3.1,0.6-4.2,1.8c-1.2,1.2-1.8,2.6-1.8,4.3c0,1.7,0.6,3.2,1.8,4.3c1.2,1.2,2.6,1.8,4.2,1.8
				h0.8c1.7,0,3,0.5,4.1,1.6c1.1,1,1.6,2.4,1.6,4.1v19c0,1.7-0.6,3.2-1.8,4.4c-1.2,1.2-2.6,1.8-4.4,1.8h-7.8c-1.7,0-3.2-0.6-4.4-1.8
				c-1.2-1.2-1.8-2.7-1.8-4.4v-16.7c0-1.7-0.6-3.1-1.8-4.2c-1.2-1.2-2.6-1.8-4.3-1.8h-13.8c-1.7,0-3.1,0.6-4.2,1.8
				c-1.2,1.2-1.8,2.6-1.8,4.2v16.7c0,1.7-0.6,3.2-1.8,4.4c-1.2,1.2-2.6,1.8-4.4,1.8H102.9z M122.9-286.3h13.8c1.7,0,3.2-0.6,4.3-1.8
				c1.2-1.2,1.8-2.6,1.8-4.2c0-1.7-0.6-3.2-1.8-4.3c-1.2-1.2-2.6-1.8-4.3-1.8h-13.8c-1.7,0-3.1,0.6-4.2,1.8
				c-1.2,1.2-1.8,2.6-1.8,4.3c0,1.7,0.6,3.1,1.8,4.2C119.8-286.9,121.2-286.3,122.9-286.3z"/>
		</g>
	</g>
</g>
<g>
	<g transform="translate(781.71493, 315.169197)">
		<g>
			<path class="st0" d="M122.5-241.4c-1.7,0-3.2-0.6-4.4-1.8c-1.2-1.2-1.8-2.7-1.8-4.4v-61.4c0-1.8,0.6-3.3,1.8-4.4
				c1.2-1.2,2.7-1.8,4.4-1.8h37.3c1.8,0,3.2,0.6,4.4,1.9c1.2,1.2,1.8,2.7,1.8,4.4v44.7c0,1.7,0.6,3.2,1.8,4.3
				c1.2,1.2,2.6,1.8,4.2,1.8c1.7,0,3.2-0.6,4.3-1.8s1.8-2.6,1.8-4.3v-44.8c0-1.8,0.6-3.3,1.8-4.4c1.2-1.2,2.7-1.8,4.4-1.8h7.8
				c1.8,0,3.2,0.6,4.4,1.8c1.2,1.2,1.8,2.6,1.8,4.4v61.4c0,1.7-0.6,3.2-1.8,4.4c-1.2,1.2-2.6,1.8-4.4,1.8h-37.3
				c-1.7,0-3.2-0.6-4.4-1.8c-1.2-1.2-1.8-2.7-1.8-4.4v-44.8c0-1.7-0.6-3.1-1.8-4.2c-1.2-1.2-2.6-1.8-4.3-1.8c-1.7,0-3.1,0.6-4.2,1.8
				c-1.2,1.2-1.8,2.6-1.8,4.2v44.9c0,1.7-0.6,3.2-1.8,4.4c-1.2,1.2-2.6,1.8-4.4,1.8H122.5z"/>
		</g>
	</g>
</g>
<g>
	<g transform="translate(852.258372, 315.169197)">
		<g>
			<path class="st0" d="M144.4-241.4c-3.1,0-4.6-1.5-4.6-4.6v-13.8c0-3.1,1.5-4.6,4.6-4.6h13.8c3.1,0,4.6,1.5,4.6,4.6v13.8
				c0,3.1-1.5,4.6-4.6,4.6H144.4z"/>
		</g>
	</g>
</g>
</svg>
