<?xml version="1.0" encoding="utf-8"?>
<!-- Generator: Adobe Illustrator 27.3.1, SVG Export Plug-In . SVG Version: 6.00 Build 0)  -->
<svg version="1.1" id="Layer_1" xmlns="http://www.w3.org/2000/svg" xmlns:xlink="http://www.w3.org/1999/xlink" x="0px" y="0px"
	 viewBox="0 0 800 800" style="enable-background:new 0 0 800 800;" xml:space="preserve">
<style type="text/css">
	.st0{fill:#EBFF29;}
	.st1{fill:#CD00EA;}
</style>
<g>
	<path class="st0" d="M447.7,627.6c48.3-20.4,111.2-39.2,154.8-45.2l8.4-0.8c24.4-3.2,44.4-26,44.4-50.8V227.6
		c0-30.8-24.8-55.6-55.6-55.6h-1.6c-49.2,4.4-121.6,27.6-168,53.6c-6.4,3.6-10,10.4-10,17.6v366
		C420.1,623.6,434.5,633.2,447.7,627.6z"/>
	<path class="st0" d="M189.1,582l7.6,0.8c44.1,5.6,107.3,24.8,155.7,45.6c13.2,5.6,27.6-4,27.6-18.4h-0.1V243.6
		c0-6.8-3.2-13.6-9.6-17.2C323.9,200,249.9,176,199.9,172c-30.4-2.4-55.2,20.4-55.2,51.2v308C144.7,556,164.7,578.8,189.1,582z"/>
	<path class="st1" d="M567.7,0H232.4C86.8,0,0,86.7,0,232.3v334.8C0,713.2,86.8,800,232.5,800h334.8c145.6,0,232.4-86.8,232.4-232.4
		V232.3C800,86.7,713.3,0,567.7,0z M699,659H109V150h590V659z"/>
	<path class="st1" d="M109,659h590V150H109V659z M420.1,243.2c0-7.2,3.6-14,10-17.6c46.4-26,118.8-49.2,168-53.6h1.6
		c30.8,0,55.6,24.8,55.6,55.6v303.2c0,0,0,0,0,0v0.1h0v-0.1c0,24.8-20,47.6-44.4,50.8l-8.4,0.8c-43.6,6-106.5,24.8-154.8,45.2
		c-13.2,5.6-27.6-4-27.6-18.4V243.2z M144.7,223.2c0-30.8,24.8-53.6,55.2-51.2c50,4,124,28,170.4,54.4c6.4,3.6,9.6,10.4,9.6,17.2
		V610h0.1c0,14.4-14.4,24-27.6,18.4c-48.4-20.8-111.6-40-155.7-45.6l-7.6-0.8c-24.4-3.2-44.4-26-44.4-50.8V223.2z"/>
</g>
</svg>
